<mxfile host="app.diagrams.net" agent="Mozilla/5.0 (Windows NT 10.0; Win64; x64) AppleWebKit/537.36 (KHTML, like Gecko) Chrome/136.0.0.0 Safari/537.36 Edg/136.0.0.0" version="27.1.4">
  <diagram name="Page-1" id="nJGh6NSJWQu3AnZTt2dt">
    <mxGraphModel dx="864" dy="474" grid="1" gridSize="10" guides="1" tooltips="1" connect="1" arrows="1" fold="1" page="1" pageScale="1" pageWidth="827" pageHeight="1169" math="0" shadow="0">
      <root>
        <mxCell id="0" />
        <mxCell id="1" parent="0" />
        <mxCell id="2unIBmcf9ACrPHbpxH-T-11" style="edgeStyle=orthogonalEdgeStyle;rounded=0;orthogonalLoop=1;jettySize=auto;html=1;exitX=0.5;exitY=1;exitDx=0;exitDy=0;entryX=0.5;entryY=0;entryDx=0;entryDy=0;" parent="1" source="2unIBmcf9ACrPHbpxH-T-1" target="2unIBmcf9ACrPHbpxH-T-5" edge="1">
          <mxGeometry relative="1" as="geometry" />
        </mxCell>
        <mxCell id="2unIBmcf9ACrPHbpxH-T-1" value="Mulai" style="rounded=1;whiteSpace=wrap;html=1;" parent="1" vertex="1">
          <mxGeometry x="120" y="120" width="120" height="60" as="geometry" />
        </mxCell>
        <mxCell id="2unIBmcf9ACrPHbpxH-T-12" style="edgeStyle=orthogonalEdgeStyle;rounded=0;orthogonalLoop=1;jettySize=auto;html=1;exitX=0.5;exitY=1;exitDx=0;exitDy=0;entryX=0.5;entryY=0;entryDx=0;entryDy=0;" parent="1" source="2unIBmcf9ACrPHbpxH-T-5" target="2unIBmcf9ACrPHbpxH-T-9" edge="1">
          <mxGeometry relative="1" as="geometry" />
        </mxCell>
        <mxCell id="2unIBmcf9ACrPHbpxH-T-5" value="Ibu memberi perintah &quot;Beli 1 botol susu&quot;" style="rounded=0;whiteSpace=wrap;html=1;" parent="1" vertex="1">
          <mxGeometry x="120" y="210" width="120" height="60" as="geometry" />
        </mxCell>
        <mxCell id="2unIBmcf9ACrPHbpxH-T-15" style="edgeStyle=orthogonalEdgeStyle;rounded=0;orthogonalLoop=1;jettySize=auto;html=1;exitX=0.5;exitY=1;exitDx=0;exitDy=0;entryX=0.5;entryY=0;entryDx=0;entryDy=0;" parent="1" source="2unIBmcf9ACrPHbpxH-T-9" target="2unIBmcf9ACrPHbpxH-T-14" edge="1">
          <mxGeometry relative="1" as="geometry" />
        </mxCell>
        <mxCell id="2unIBmcf9ACrPHbpxH-T-9" value="Anak menjawab &quot;OK&quot;" style="rounded=0;whiteSpace=wrap;html=1;" parent="1" vertex="1">
          <mxGeometry x="120" y="310" width="120" height="60" as="geometry" />
        </mxCell>
        <mxCell id="2unIBmcf9ACrPHbpxH-T-16" style="edgeStyle=orthogonalEdgeStyle;rounded=0;orthogonalLoop=1;jettySize=auto;html=1;exitX=0.5;exitY=1;exitDx=0;exitDy=0;entryX=0.5;entryY=0;entryDx=0;entryDy=0;" parent="1" source="2unIBmcf9ACrPHbpxH-T-14" edge="1">
          <mxGeometry relative="1" as="geometry">
            <mxPoint x="180" y="520" as="targetPoint" />
          </mxGeometry>
        </mxCell>
        <mxCell id="2unIBmcf9ACrPHbpxH-T-14" value="Anak pergi ke toko" style="rounded=0;whiteSpace=wrap;html=1;" parent="1" vertex="1">
          <mxGeometry x="120" y="420" width="120" height="60" as="geometry" />
        </mxCell>
        <mxCell id="2unIBmcf9ACrPHbpxH-T-19" value="ada" style="edgeStyle=orthogonalEdgeStyle;rounded=0;orthogonalLoop=1;jettySize=auto;html=1;exitX=1;exitY=0.5;exitDx=0;exitDy=0;" parent="1" source="2unIBmcf9ACrPHbpxH-T-17" edge="1">
          <mxGeometry relative="1" as="geometry">
            <mxPoint x="270" y="560" as="targetPoint" />
          </mxGeometry>
        </mxCell>
        <mxCell id="2unIBmcf9ACrPHbpxH-T-21" value="Tidak" style="edgeStyle=orthogonalEdgeStyle;rounded=0;orthogonalLoop=1;jettySize=auto;html=1;exitX=0.5;exitY=1;exitDx=0;exitDy=0;" parent="1" source="2unIBmcf9ACrPHbpxH-T-17" edge="1">
          <mxGeometry relative="1" as="geometry">
            <mxPoint x="180" y="660" as="targetPoint" />
          </mxGeometry>
        </mxCell>
        <mxCell id="2unIBmcf9ACrPHbpxH-T-17" value="Apakah susu ada?" style="rhombus;whiteSpace=wrap;html=1;" parent="1" vertex="1">
          <mxGeometry x="140" y="520" width="80" height="80" as="geometry" />
        </mxCell>
        <mxCell id="2unIBmcf9ACrPHbpxH-T-29" style="edgeStyle=orthogonalEdgeStyle;rounded=0;orthogonalLoop=1;jettySize=auto;html=1;exitX=0.5;exitY=1;exitDx=0;exitDy=0;" parent="1" source="2unIBmcf9ACrPHbpxH-T-20" edge="1">
          <mxGeometry relative="1" as="geometry">
            <mxPoint x="340" y="660" as="targetPoint" />
          </mxGeometry>
        </mxCell>
        <mxCell id="A_nC_0FjuYxn7gHEsyoS-5" style="edgeStyle=orthogonalEdgeStyle;rounded=0;orthogonalLoop=1;jettySize=auto;html=1;exitX=1;exitY=0.5;exitDx=0;exitDy=0;entryX=0.5;entryY=0;entryDx=0;entryDy=0;" edge="1" parent="1" source="2unIBmcf9ACrPHbpxH-T-20" target="2unIBmcf9ACrPHbpxH-T-34">
          <mxGeometry relative="1" as="geometry" />
        </mxCell>
        <mxCell id="2unIBmcf9ACrPHbpxH-T-20" value="Anak mengecek harganya, cukup" style="rounded=0;whiteSpace=wrap;html=1;" parent="1" vertex="1">
          <mxGeometry x="280" y="530" width="120" height="60" as="geometry" />
        </mxCell>
        <mxCell id="2unIBmcf9ACrPHbpxH-T-23" style="edgeStyle=orthogonalEdgeStyle;rounded=0;orthogonalLoop=1;jettySize=auto;html=1;exitX=0.5;exitY=1;exitDx=0;exitDy=0;" parent="1" source="2unIBmcf9ACrPHbpxH-T-22" edge="1">
          <mxGeometry relative="1" as="geometry">
            <mxPoint x="180" y="810" as="targetPoint" />
          </mxGeometry>
        </mxCell>
        <mxCell id="2unIBmcf9ACrPHbpxH-T-22" value="Anak tidak jadi membeli susu" style="rounded=0;whiteSpace=wrap;html=1;" parent="1" vertex="1">
          <mxGeometry x="120" y="670" width="120" height="60" as="geometry" />
        </mxCell>
        <mxCell id="2unIBmcf9ACrPHbpxH-T-25" style="edgeStyle=orthogonalEdgeStyle;rounded=0;orthogonalLoop=1;jettySize=auto;html=1;exitX=0.5;exitY=1;exitDx=0;exitDy=0;" parent="1" source="2unIBmcf9ACrPHbpxH-T-24" edge="1">
          <mxGeometry relative="1" as="geometry">
            <mxPoint x="180" y="960" as="targetPoint" />
          </mxGeometry>
        </mxCell>
        <mxCell id="2unIBmcf9ACrPHbpxH-T-24" value="Anak pulang ke rumah" style="rounded=0;whiteSpace=wrap;html=1;" parent="1" vertex="1">
          <mxGeometry x="120" y="820" width="120" height="60" as="geometry" />
        </mxCell>
        <mxCell id="2unIBmcf9ACrPHbpxH-T-27" style="edgeStyle=orthogonalEdgeStyle;rounded=0;orthogonalLoop=1;jettySize=auto;html=1;exitX=0.5;exitY=1;exitDx=0;exitDy=0;" parent="1" source="2unIBmcf9ACrPHbpxH-T-26" edge="1">
          <mxGeometry relative="1" as="geometry">
            <mxPoint x="180" y="1090" as="targetPoint" />
          </mxGeometry>
        </mxCell>
        <mxCell id="2unIBmcf9ACrPHbpxH-T-26" value="Anak menyerahkan hasil belanjanya kepada Ibu" style="rounded=0;whiteSpace=wrap;html=1;" parent="1" vertex="1">
          <mxGeometry x="120" y="970" width="120" height="60" as="geometry" />
        </mxCell>
        <mxCell id="2unIBmcf9ACrPHbpxH-T-28" value="Selesai" style="rounded=0;whiteSpace=wrap;html=1;" parent="1" vertex="1">
          <mxGeometry x="120" y="1096" width="120" height="60" as="geometry" />
        </mxCell>
        <mxCell id="2unIBmcf9ACrPHbpxH-T-33" value="Tidak" style="edgeStyle=orthogonalEdgeStyle;rounded=0;orthogonalLoop=1;jettySize=auto;html=1;exitX=1;exitY=0.5;exitDx=0;exitDy=0;" parent="1" source="2unIBmcf9ACrPHbpxH-T-31" edge="1">
          <mxGeometry relative="1" as="geometry">
            <mxPoint x="450" y="710" as="targetPoint" />
          </mxGeometry>
        </mxCell>
        <mxCell id="2unIBmcf9ACrPHbpxH-T-46" value="Ada" style="edgeStyle=orthogonalEdgeStyle;rounded=0;orthogonalLoop=1;jettySize=auto;html=1;exitX=0.5;exitY=1;exitDx=0;exitDy=0;" parent="1" source="2unIBmcf9ACrPHbpxH-T-31" edge="1">
          <mxGeometry relative="1" as="geometry">
            <mxPoint x="340" y="780" as="targetPoint" />
          </mxGeometry>
        </mxCell>
        <mxCell id="2unIBmcf9ACrPHbpxH-T-31" value="Apakah ada telur?" style="rhombus;whiteSpace=wrap;html=1;" parent="1" vertex="1">
          <mxGeometry x="300" y="670" width="80" height="80" as="geometry" />
        </mxCell>
        <mxCell id="2unIBmcf9ACrPHbpxH-T-34" value="Anak membeli satu botol susu" style="rounded=0;whiteSpace=wrap;html=1;" parent="1" vertex="1">
          <mxGeometry x="460" y="680" width="120" height="60" as="geometry" />
        </mxCell>
        <mxCell id="2unIBmcf9ACrPHbpxH-T-42" value="" style="endArrow=none;html=1;rounded=0;entryX=0.5;entryY=1;entryDx=0;entryDy=0;" parent="1" target="2unIBmcf9ACrPHbpxH-T-34" edge="1">
          <mxGeometry width="50" height="50" relative="1" as="geometry">
            <mxPoint x="520" y="850" as="sourcePoint" />
            <mxPoint x="440" y="900" as="targetPoint" />
          </mxGeometry>
        </mxCell>
        <mxCell id="2unIBmcf9ACrPHbpxH-T-43" value="" style="endArrow=classic;html=1;rounded=0;entryX=1;entryY=0.5;entryDx=0;entryDy=0;" parent="1" target="2unIBmcf9ACrPHbpxH-T-24" edge="1">
          <mxGeometry width="50" height="50" relative="1" as="geometry">
            <mxPoint x="520" y="850" as="sourcePoint" />
            <mxPoint x="440" y="900" as="targetPoint" />
          </mxGeometry>
        </mxCell>
        <mxCell id="2unIBmcf9ACrPHbpxH-T-48" value="" style="edgeStyle=orthogonalEdgeStyle;rounded=0;orthogonalLoop=1;jettySize=auto;html=1;" parent="1" source="2unIBmcf9ACrPHbpxH-T-47" target="2unIBmcf9ACrPHbpxH-T-24" edge="1">
          <mxGeometry relative="1" as="geometry" />
        </mxCell>
        <mxCell id="2unIBmcf9ACrPHbpxH-T-47" value="Belikan telur sejumlah 6 butir" style="rounded=0;whiteSpace=wrap;html=1;" parent="1" vertex="1">
          <mxGeometry x="290" y="780" width="110" height="60" as="geometry" />
        </mxCell>
      </root>
    </mxGraphModel>
  </diagram>
</mxfile>
